<svg width="292" height="319" viewBox="0 0 292 319" fill="none" xmlns="http://www.w3.org/2000/svg">
<g clip-path="url(#clip0_11_602)">
<path d="M113.094 261.823C107.284 256.33 98.8643 253.18 89.9938 253.18L89.6517 253.181C83.809 253.183 78.0705 251.762 73.0232 249.064L72.4979 248.783L72.921 248.384C75.2111 246.212 77.1234 243.73 78.5908 241.025C77.5486 241.916 76.3056 242.586 74.9497 242.987C73.5939 243.389 72.1583 243.512 70.7446 243.349C69.2521 243.186 67.8192 242.715 66.5535 241.972C65.2878 241.228 64.2222 240.232 63.4364 239.057C60.3361 234.446 56.6405 227.903 56.6405 222.918C56.6453 218.705 57.6076 214.539 59.4661 210.685C61.3246 206.832 64.0385 203.376 67.4348 200.537C69.585 198.76 71.3024 196.587 72.4751 194.16C73.6479 191.734 74.2495 189.108 74.241 186.454L74.2392 186.076C74.2387 182.582 74.7045 179.101 75.6262 175.711L75.7198 175.368L76.1041 175.38C78.5821 175.458 81.0613 175.267 83.4907 174.813C81.212 174.557 78.9827 174.013 76.8662 173.198L76.4528 173.045L76.5931 172.656C86.2639 167.167 108.094 170.01 120.764 143.435C131.038 121.886 167.289 162.564 167.289 186.076C167.289 188.476 164.699 191.646 166.638 193.232C187.598 210.374 173.136 221.381 168.576 232.458C167.494 235.086 169.84 237.971 169.84 240.814C169.84 241.296 169.827 241.794 169.8 242.294L169.76 243.062L169.061 242.636C167.679 241.806 166.397 240.842 165.238 239.762C166.44 242.297 167.007 245.048 166.896 247.811C166.785 250.574 166 253.279 164.599 255.727C162.402 259.527 160.277 262.248 158.282 263.813C151.893 268.825 143.657 271.411 135.257 271.041C126.858 270.671 118.93 267.374 113.094 261.823H113.094Z" fill="#E6E6E6"/>
<path d="M148.186 319C148.329 319 148.467 318.953 148.575 318.867C148.682 318.781 148.753 318.662 148.773 318.532C148.798 318.37 151.269 302.036 149.05 280.328C147.001 260.28 140.42 231.404 120.708 207.688C120.661 207.631 120.602 207.583 120.534 207.547C120.467 207.511 120.392 207.488 120.315 207.478C120.238 207.468 120.159 207.473 120.084 207.491C120.008 207.509 119.938 207.541 119.875 207.585C119.813 207.628 119.761 207.682 119.722 207.744C119.683 207.806 119.657 207.874 119.647 207.945C119.637 208.016 119.641 208.088 119.662 208.157C119.682 208.226 119.716 208.291 119.764 208.348C139.306 231.859 145.833 260.523 147.868 280.43C150.074 302.011 147.622 318.218 147.597 318.379C147.586 318.456 147.592 318.535 147.616 318.61C147.64 318.685 147.681 318.754 147.737 318.813C147.793 318.871 147.862 318.919 147.939 318.951C148.017 318.983 148.101 319 148.186 319V319Z" fill="#3F3D56"/>
<path d="M132.1 241.14C132.225 241.14 132.347 241.104 132.449 241.036C132.55 240.969 132.626 240.874 132.664 240.764C132.703 240.655 132.703 240.537 132.665 240.428C132.626 240.318 132.55 240.223 132.449 240.156C126.832 236.67 120.764 233.839 114.385 231.726C104.419 228.381 89.2641 225.349 73.6624 229.901C73.5879 229.922 73.5189 229.957 73.4591 230.003C73.3993 230.049 73.3501 230.106 73.3141 230.169C73.2782 230.233 73.2563 230.302 73.2497 230.373C73.243 230.445 73.2518 230.517 73.2754 230.585C73.2991 230.653 73.3372 230.716 73.3876 230.771C73.438 230.826 73.4996 230.871 73.569 230.903C73.6384 230.936 73.7142 230.956 73.792 230.962C73.8698 230.968 73.9481 230.96 74.0224 230.938C89.3045 226.48 104.185 229.462 113.977 232.748C120.254 234.825 126.224 237.609 131.751 241.036C131.852 241.104 131.974 241.14 132.1 241.14Z" fill="#3F3D56"/>
<path d="M159.271 179.102C159.28 178.988 159.249 178.873 159.183 178.776C159.117 178.678 159.019 178.602 158.903 178.559C158.787 178.515 158.659 178.507 158.537 178.534C158.415 178.562 158.306 178.624 158.225 178.712C154.028 183.596 150.511 188.941 147.753 194.621C143.396 203.493 139.005 217.131 142.834 231.724C142.852 231.793 142.885 231.859 142.931 231.917C142.977 231.975 143.035 232.024 143.101 232.061C143.168 232.099 143.242 232.124 143.319 232.135C143.396 232.146 143.474 232.143 143.55 232.126C143.626 232.11 143.698 232.079 143.761 232.037C143.824 231.995 143.877 231.942 143.918 231.881C143.959 231.82 143.986 231.752 143.998 231.682C144.01 231.611 144.007 231.539 143.989 231.469C140.238 217.175 144.554 203.785 148.835 195.068C151.547 189.479 155.006 184.22 159.133 179.413C159.214 179.326 159.262 179.217 159.271 179.102Z" fill="#3F3D56"/>
<path d="M273.782 318.424H226.521L226.318 318.086C225.714 317.081 225.131 316.017 224.585 314.923C219.717 305.369 217.66 294.442 215.844 284.801L214.477 277.534C214.311 276.654 214.436 275.749 214.835 274.934C215.234 274.119 215.889 273.432 216.717 272.961C217.544 272.49 218.506 272.255 219.48 272.288C220.453 272.321 221.394 272.619 222.182 273.145C229.364 277.936 236.549 282.722 243.737 287.504C246.459 289.319 249.567 291.42 252.544 293.691C252.831 292.412 253.131 291.13 253.432 289.865C253.639 288.992 254.125 288.195 254.829 287.577C255.533 286.959 256.422 286.547 257.383 286.395C258.344 286.243 259.332 286.357 260.221 286.722C261.111 287.088 261.861 287.689 262.376 288.447L267.905 296.591C271.938 302.539 275.498 308.399 274.773 314.72C274.776 314.797 274.77 314.874 274.754 314.95C274.609 315.988 274.34 317.009 273.952 317.993L273.782 318.424Z" fill="#F0F0F0"/>
<path d="M251.764 148.099L242.643 117.151C242.252 115.841 241.315 114.724 240.034 114.042C238.753 113.359 237.231 113.166 235.796 113.503C235.053 113.678 234.358 113.989 233.751 114.418C233.144 114.847 232.639 115.385 232.266 115.999C231.893 116.613 231.661 117.29 231.583 117.989C231.505 118.688 231.583 119.395 231.812 120.065L242.362 151.946L247.881 171.565C247.078 172.128 246.482 172.904 246.176 173.788C245.87 174.671 245.868 175.62 246.171 176.505C246.473 177.389 247.065 178.167 247.867 178.733C248.669 179.298 249.641 179.624 250.651 179.665C251.661 179.706 252.661 179.461 253.515 178.964C254.368 178.466 255.034 177.74 255.421 176.883C255.808 176.027 255.898 175.081 255.679 174.176C255.46 173.271 254.943 172.45 254.197 171.824L251.764 148.099Z" fill="#A0616A"/>
<path d="M175.013 141.434L202.726 121.882C203.897 121.051 204.665 119.83 204.864 118.484C205.062 117.138 204.675 115.775 203.787 114.688C203.327 114.126 202.748 113.655 202.083 113.305C201.419 112.955 200.683 112.732 199.922 112.651C199.161 112.57 198.389 112.632 197.655 112.833C196.921 113.034 196.239 113.37 195.65 113.82L167.543 134.939L149.873 147.111C148.999 146.645 147.989 146.437 146.981 146.515C145.974 146.594 145.016 146.954 144.24 147.549C143.464 148.143 142.906 148.942 142.642 149.837C142.379 150.732 142.422 151.68 142.766 152.552C143.111 153.424 143.74 154.177 144.567 154.71C145.395 155.243 146.382 155.529 147.393 155.53C148.405 155.531 149.392 155.246 150.221 154.715C151.049 154.183 151.68 153.431 152.026 152.56L175.013 141.434Z" fill="#A0616A"/>
<path d="M197.6 145.928L196.379 170.938L234.734 163.296C231.469 153.247 229.25 151.532 231.703 144.539L197.6 145.928Z" fill="#A0616A"/>
<path d="M221.184 100.078H208.404L202.915 108.688L200.3 108.555C199.021 108.491 197.741 108.666 196.538 109.07C195.335 109.474 194.235 110.099 193.305 110.906C192.374 111.713 191.633 112.686 191.127 113.764C190.62 114.843 190.359 116.005 190.359 117.179L193.581 121.758C193.581 121.758 187.818 130.964 196.12 135.494C196.12 135.494 194.639 144.027 196.12 143.936C197.6 143.844 201.01 142.107 197.6 143.844C194.19 145.581 194.444 145.814 194.885 146.218L195.327 146.623L231.186 152.142C231.186 152.142 232.234 145.77 232.347 144.633C232.461 143.497 231.703 146.275 232.461 143.497C233.218 140.718 234.355 141.76 233.218 140.718C232.082 139.676 240.584 126.765 237.091 121.758L242.691 116.75C242.691 111.946 234.275 108.052 229.035 108.052H228.364L221.184 100.078Z" fill="#E6E6E6"/>
<path d="M190.392 308.782H185.219L182.758 290.491L190.392 290.492L190.392 308.782Z" fill="#A0616A"/>
<path d="M174.779 315.779C174.781 316.31 175.012 316.819 175.421 317.195C175.831 317.571 176.385 317.783 176.965 317.787H186.702L187.004 317.214L188.382 314.608L188.915 317.214L189.033 317.787H192.706L192.653 317.21L191.674 306.443L190.393 306.371L184.857 306.07L183.497 305.994V309.209C182.465 310.215 174.368 314.019 174.779 315.779Z" fill="#2F2E41"/>
<path d="M267.268 296.361L262.918 298.927L250.053 284.765L256.474 280.979L267.268 296.361Z" fill="#A0616A"/>
<path d="M258.267 309.989C258.583 310.434 259.077 310.748 259.643 310.861C260.21 310.974 260.802 310.878 261.291 310.594L269.48 305.764L269.396 305.132L269.016 302.258L271.003 304.185L271.44 304.608L274.529 302.787L274.144 302.327L266.966 293.758L265.846 294.333L261.014 296.826L259.825 297.436L261.722 300.14C261.448 301.498 256.883 308.713 258.267 309.989Z" fill="#2F2E41"/>
<path d="M291.398 318.758L131.225 318.901C131.065 318.9 130.912 318.842 130.799 318.738C130.686 318.634 130.623 318.493 130.623 318.347C130.623 318.2 130.686 318.06 130.799 317.956C130.912 317.852 131.065 317.793 131.225 317.792L291.398 317.649C291.558 317.65 291.711 317.709 291.824 317.813C291.937 317.916 292 318.057 292 318.204C292 318.35 291.937 318.491 291.824 318.595C291.711 318.698 291.558 318.757 291.398 318.758Z" fill="#CACACA"/>
<path d="M234.133 160.471C234.133 160.471 209.615 172.359 196.648 164.248C196.648 164.248 193.811 176.843 192.674 177.885C191.537 178.927 189.726 179.381 191.011 180.544C192.295 181.706 193.01 183.276 190.569 185.27C188.127 187.264 185.693 186.631 188.047 188.684C190.401 190.737 180.928 241.104 180.928 241.104C180.928 241.104 182.443 287.944 180.928 289.36C179.412 290.777 177.386 291.094 179.346 292.846C181.307 294.598 181.307 293.239 181.307 295.655V298.071L182.204 300.473H194.507C194.507 300.473 197.476 297.311 194.507 294.565C191.537 291.819 195.41 291.067 196.316 288.491C197.221 285.914 198.737 288.693 197.221 285.914C195.706 283.135 194.978 283.664 194.963 281.836C194.948 280.009 217.304 208.453 217.304 208.453L220.012 248.058L252.581 291.432L262.168 284.841C262.168 284.841 255.188 275.834 256.821 274.595C258.453 273.357 252.01 271.804 254.042 270.407C256.073 269.01 251.183 267.603 253.026 265.751C254.869 263.899 250.486 259.233 247.947 259.233C245.407 259.233 241.843 251.453 241.843 251.453L247.164 189.996L234.133 160.471Z" fill="#2F2E41"/>
<path d="M208.147 74.798C207.973 75.0068 206.591 74.8944 204.929 74.6719C201.642 74.2319 201.194 74.7547 198.737 76.8036C195.178 79.7715 197.201 97.8737 195.452 101.796L194.887 102.178C196.008 101.981 197.109 101.699 198.178 101.334C198.782 99.5868 199.387 97.8344 199.997 96.0891C200.572 97.4471 200.934 98.8732 201.071 100.325C201.917 100.019 202.759 99.2711 206.294 98.2683C208.074 97.1612 220.953 96.048 222.609 95.561C226.811 82.4547 220.039 77.1545 208.147 74.798Z" fill="#2F2E41"/>
<path d="M212.495 95.0083C219.292 95.0083 224.802 89.957 224.802 83.726C224.802 77.4949 219.292 72.4437 212.495 72.4437C205.698 72.4437 200.188 77.4949 200.188 83.726C200.188 89.957 205.698 95.0083 212.495 95.0083Z" fill="#A0616A"/>
<path d="M220.244 73.8037C219.55 73.7099 218.882 73.4953 218.277 73.1716C217.977 73.0053 217.733 72.7651 217.575 72.4782C217.417 72.1913 217.349 71.8693 217.381 71.5491C217.533 70.7475 218.521 70.2689 219.407 70.3176C220.289 70.4342 221.127 70.7451 221.85 71.2237C221.77 70.449 221.409 69.7212 220.824 69.1572C220.24 68.5932 219.465 68.2258 218.625 68.1139C219.79 68.0564 221.002 68.0056 222.079 68.4164C223.156 68.8272 224.054 69.8444 223.86 70.8992C225.671 70.6853 227.458 71.8423 228.206 73.3698C228.953 74.8972 228.805 76.691 228.208 78.2732C228.149 78.5154 228.034 78.7433 227.87 78.9412C227.707 79.1392 227.499 79.3026 227.261 79.4205C226.651 79.6326 225.995 79.277 225.467 78.9264C222.708 77.095 220.196 74.9687 217.986 72.5926" fill="#2F2E41"/>
<path d="M225.61 95.7208C225.088 95.9459 225.36 96.7837 224.954 97.1588C224.778 97.3177 224.566 97.4387 224.333 97.5132C224.272 96.8139 224.094 96.1274 223.806 95.4776C223.753 95.3595 223.666 95.2275 223.529 95.238C223.37 95.2553 223.329 95.4464 223.325 95.5888C223.293 96.2953 223.122 96.9907 222.821 97.6417C222.817 97.6486 222.813 97.659 222.81 97.666C222.692 97.6625 222.571 97.659 222.457 97.6556C221.578 97.6243 219.63 95.5541 219.198 96.2557C220.722 93.7791 222.578 90.0553 222.863 87.2244C222.961 86.6317 222.913 86.0263 222.722 85.4528C222.623 85.1675 222.436 84.9144 222.184 84.7236C221.932 84.5327 221.626 84.4121 221.301 84.376C221.141 84.3693 220.982 84.3952 220.834 84.4516C220.686 84.5081 220.554 84.5938 220.446 84.7027C220.338 84.8116 220.259 84.9409 220.212 85.0814C220.165 85.2218 220.153 85.3701 220.176 85.5154L219.956 85.4876C217.918 83.9662 219.676 81.3227 217.304 80.2772C216.501 79.9229 211.582 81.1074 210.714 80.899C210.696 80.061 210.51 79.2333 210.165 78.4571C210.112 78.3389 210.025 78.2069 209.888 78.2174C209.729 78.2347 209.688 78.4258 209.684 78.5682C209.652 79.2747 209.481 79.9701 209.18 80.6211C207.978 80.4648 206.754 80.5237 205.576 80.7948C204.538 81.0449 203.553 81.4756 202.511 81.7049C201.996 81.8495 201.454 81.8964 200.918 81.8427C200.383 81.7889 199.865 81.6357 199.396 81.3922C198.074 80.5794 197.843 78.7801 198.502 77.4532C198.979 76.6017 199.624 75.8386 200.404 75.2023C200.999 74.6743 201.617 74.1671 202.234 73.66C202.788 73.205 203.341 72.7499 203.894 72.2949C204.59 71.694 205.332 71.1392 206.114 70.6345C207.363 69.8843 208.766 69.3758 210.236 69.1405C211.707 68.9051 213.215 68.9478 214.667 69.2659C216.41 69.648 218.74 69.1096 220.335 69.8564C221.169 70.2489 223.014 71.753 223.745 72.2879C225.617 73.6531 224.351 72.5407 226.398 73.33C231.28 75.212 229.121 94.2055 225.61 95.7208Z" fill="#2F2E41"/>
<path d="M89.3399 178.069C131.493 178.069 165.665 146.743 165.665 108.101C165.665 69.4582 131.493 38.1323 89.3399 38.1323C47.1867 38.1323 13.0148 69.4582 13.0148 108.101C13.0148 146.743 47.1867 178.069 89.3399 178.069Z" fill="white"/>
<path d="M89.34 178.767C46.8341 178.767 12.253 147.066 12.253 108.101C12.253 69.1348 46.8341 37.4338 89.34 37.4338C131.846 37.4338 166.427 69.1348 166.427 108.101C166.427 147.066 131.846 178.767 89.34 178.767ZM89.34 38.8307C47.6744 38.8307 13.7767 69.9051 13.7767 108.101C13.7767 146.296 47.6743 177.37 89.34 177.37C131.006 177.37 164.903 146.296 164.903 108.101C164.903 69.9051 131.006 38.8307 89.34 38.8307Z" fill="#16BCFC"/>
<path d="M78.9276 144.516C77.6096 144.516 76.3096 144.234 75.1308 143.694C73.952 143.154 72.9267 142.369 72.1362 141.402L51.3135 115.95C50.6446 115.133 50.1579 114.202 49.8812 113.212C49.6046 112.222 49.5433 111.192 49.7011 110.18C49.8588 109.168 50.2323 108.195 50.8004 107.315C51.3685 106.436 52.1199 105.668 53.0119 105.054C53.9038 104.441 54.9188 103.995 55.9989 103.741C57.0789 103.488 58.2029 103.432 59.3066 103.576C60.4103 103.721 61.4721 104.063 62.4314 104.584C63.3908 105.105 64.2288 105.794 64.8977 106.611L78.5206 123.261L113.509 75.1499C114.759 73.4338 116.701 72.2428 118.908 71.8388C121.115 71.4347 123.407 71.8507 125.28 72.9953C127.153 74.1398 128.453 75.9193 128.896 77.9425C129.338 79.9657 128.885 82.067 127.638 83.7846L85.9926 141.05C85.2393 142.086 84.226 142.941 83.0379 143.543C81.8497 144.146 80.5212 144.478 79.1639 144.513C79.0851 144.515 79.0064 144.516 78.9276 144.516Z" fill="#16BCFC"/>
<path d="M167.977 42.5039C168.189 41.1662 166.661 39.855 164.563 39.5752C162.466 39.2954 160.593 40.153 160.381 41.4907C160.169 42.8284 161.697 44.1397 163.795 44.4195C165.892 44.6992 167.765 43.8416 167.977 42.5039Z" fill="#E6E6E6"/>
<path d="M192.952 40.27C193.164 38.9323 191.636 37.6211 189.538 37.3413C187.44 37.0615 185.568 37.9191 185.355 39.2568C185.143 40.5945 186.671 41.9057 188.769 42.1855C190.867 42.4653 192.739 41.6077 192.952 40.27Z" fill="#3F3D56"/>
<path d="M161.138 23.9689C161.35 22.6312 159.822 21.32 157.724 21.0403C155.627 20.7605 153.754 21.6181 153.542 22.9558C153.329 24.2935 154.858 25.6047 156.955 25.8845C159.053 26.1643 160.926 25.3066 161.138 23.9689Z" fill="#FF6584"/>
<path d="M150.286 16.3766C150.296 15.1486 149.549 14.1478 148.617 14.1413C147.685 14.1349 146.921 15.1252 146.911 16.3532C146.901 17.5813 147.648 18.5821 148.58 18.5885C149.512 18.595 150.276 17.6047 150.286 16.3766Z" fill="#E6E6E6"/>
<path d="M146.606 2.23532C146.616 1.00726 145.869 0.00648328 144.937 2.32359e-05C144.005 -0.00643681 143.241 0.983869 143.231 2.21193C143.221 3.43999 143.968 4.44077 144.9 4.44723C145.832 4.45369 146.596 3.46338 146.606 2.23532Z" fill="#3F3D56"/>
<path d="M175.224 27.123C175.234 25.895 174.487 24.8942 173.555 24.8877C172.623 24.8813 171.86 25.8716 171.85 27.0997C171.839 28.3277 172.587 29.3285 173.519 29.335C174.45 29.3414 175.214 28.3511 175.224 27.123Z" fill="#E6E6E6"/>
<path d="M163.155 32.647C163.166 31.419 162.418 30.4182 161.486 30.4117C160.554 30.4053 159.791 31.3956 159.781 32.6237C159.77 33.8517 160.518 34.8525 161.45 34.8589C162.382 34.8654 163.145 33.8751 163.155 32.647Z" fill="#FF6584"/>
<path d="M179.956 42.8568C179.966 41.6288 179.219 40.628 178.287 40.6215C177.355 40.6151 176.591 41.6054 176.581 42.8334C176.571 44.0615 177.318 45.0622 178.25 45.0687C179.182 45.0751 179.946 44.0849 179.956 42.8568Z" fill="#3F3D56"/>
<path d="M24.7461 208.261C24.9584 206.923 23.43 205.612 21.3324 205.332C19.2347 205.052 17.3622 205.91 17.1498 207.248C16.9375 208.585 18.4659 209.897 20.5635 210.176C22.6612 210.456 24.5338 209.599 24.7461 208.261Z" fill="#E6E6E6"/>
<path d="M49.7208 206.027C49.9331 204.689 48.4048 203.378 46.3071 203.098C44.2095 202.818 42.3369 203.676 42.1246 205.014C41.9123 206.351 43.4406 207.663 45.5383 207.942C47.6359 208.222 49.5085 207.365 49.7208 206.027Z" fill="#3F3D56"/>
<path d="M17.9072 189.726C18.1196 188.388 16.5912 187.077 14.4936 186.797C12.3959 186.517 10.5233 187.375 10.311 188.713C10.0987 190.05 11.6271 191.362 13.7247 191.641C15.8223 191.921 17.6949 191.064 17.9072 189.726Z" fill="#FF6584"/>
<path d="M7.05508 182.134C7.06521 180.906 6.31796 179.905 5.38604 179.898C4.45412 179.892 3.69043 180.882 3.6803 182.11C3.67017 183.338 4.41744 184.339 5.34936 184.346C6.28127 184.352 7.04495 183.362 7.05508 182.134Z" fill="#E6E6E6"/>
<path d="M3.37489 167.992C3.38502 166.764 2.63777 165.763 1.70585 165.757C0.773931 165.751 0.0102531 166.741 0.000123043 167.969C-0.010007 169.197 0.737247 170.198 1.66917 170.204C2.60108 170.211 3.36476 169.22 3.37489 167.992Z" fill="#3F3D56"/>
<path d="M31.9932 192.88C32.0034 191.652 31.2561 190.651 30.3242 190.645C29.3923 190.638 28.6286 191.629 28.6185 192.857C28.6083 194.085 29.3556 195.085 30.2875 195.092C31.2194 195.098 31.9831 194.108 31.9932 192.88Z" fill="#E6E6E6"/>
<path d="M19.9244 198.404C19.9345 197.176 19.1872 196.175 18.2553 196.169C17.3234 196.162 16.5597 197.153 16.5496 198.381C16.5394 199.609 17.2867 200.609 18.2186 200.616C19.1505 200.622 19.9142 199.632 19.9244 198.404Z" fill="#FF6584"/>
<path d="M36.7247 208.614C36.7348 207.386 35.9875 206.385 35.0556 206.378C34.1237 206.372 33.36 207.362 33.3499 208.59C33.3398 209.818 34.087 210.819 35.0189 210.826C35.9508 210.832 36.7145 209.842 36.7247 208.614Z" fill="#3F3D56"/>
</g>
<defs>
<clipPath id="clip0_11_602">
<rect width="292" height="319" fill="white"/>
</clipPath>
</defs>
</svg>
