<svg width="300" height="300" viewBox="0 0 300 300" fill="none" xmlns="http://www.w3.org/2000/svg">
<g clip-path="url(#clip0_11_641)">
<rect width="300" height="300" fill="white" fill-opacity="0.8"/>
<path d="M210.245 131.364C228.274 131.364 242.889 117.844 242.889 101.167C242.889 84.4893 228.274 70.9696 210.245 70.9696C192.216 70.9696 177.601 84.4893 177.601 101.167C177.601 117.844 192.216 131.364 210.245 131.364Z" fill="#FF00FA"/>
<path d="M299.79 123.681C299.862 123.669 299.916 123.623 300 123.635C299.963 123.504 299.915 123.376 299.857 123.252C299.753 123.383 299.647 123.517 299.554 123.634L299.79 123.681Z" fill="white"/>
<path d="M80.8394 172.638C81.0301 179.226 82.223 185.756 84.3832 192.037C84.4326 192.182 84.4843 192.326 84.536 192.472H97.7612C97.7471 192.341 97.733 192.195 97.7189 192.037C96.837 182.659 91.753 125.584 97.8318 115.824C97.3003 116.616 79.8141 142.841 80.8394 172.638Z" fill="#E6E6E6"/>
<path d="M81.8317 192.037C81.9423 192.182 82.0575 192.328 82.1751 192.472H92.0963C92.021 192.348 91.934 192.202 91.8329 192.037C90.1939 189.3 85.3426 181.119 80.8394 172.638C75.9999 163.523 71.5601 154.063 71.934 150.639C71.8188 151.411 68.4702 174.952 81.8317 192.037Z" fill="#E6E6E6"/>
<path d="M184.927 193.605C184.761 199.349 183.721 205.043 181.838 210.518C181.795 210.645 181.749 210.77 181.704 210.897H170.174C170.187 210.783 170.199 210.656 170.211 210.518C170.98 202.342 175.413 152.584 170.113 144.074C170.576 144.765 185.821 167.628 184.927 193.605Z" fill="#E6E6E6"/>
<path d="M184.062 210.518C183.966 210.645 183.865 210.772 183.763 210.897H175.113C175.179 210.789 175.255 210.662 175.343 210.518C176.772 208.132 181.001 201 184.927 193.605C189.146 185.659 193.017 177.412 192.691 174.427C192.791 175.1 195.711 195.623 184.062 210.518Z" fill="#E6E6E6"/>
<path d="M53.0967 24.5105L58.4736 20.5324C54.2966 20.1061 52.5803 22.2134 51.8779 23.8813C48.6146 22.6279 45.0621 24.2706 45.0621 24.2706L55.8203 27.8834C55.2775 26.5425 54.3328 25.3724 53.0967 24.5105Z" fill="#3F3D56"/>
<path d="M215.044 4.0338L220.42 0.0557115C216.243 -0.370585 214.527 1.73672 213.825 3.40466C210.562 2.1512 207.009 3.79392 207.009 3.79392L217.767 7.40672C217.224 6.06577 216.28 4.89573 215.044 4.0338Z" fill="#3F3D56"/>
<path d="M294.154 161.348C294.154 164.645 294.03 167.914 293.782 171.156C291.867 196.736 282.278 221.315 266.094 242.132C263.979 244.863 261.758 247.517 259.432 250.094C253.404 256.782 246.711 262.932 239.441 268.463L207.574 251.166L188.52 210.03C188.52 210.03 216.948 156.785 294.104 157.75C294.136 158.945 294.153 160.145 294.154 161.348Z" fill="#3F3D56"/>
<path d="M293.782 171.156C292.316 190.271 286.583 208.898 276.944 225.86C267.305 242.823 253.971 257.753 237.781 269.709L208.176 253.641L191.279 217.158C191.279 217.158 218.659 165.878 293.782 171.156Z" fill="#80E336"/>
<path d="M266.094 242.132C263.979 244.863 261.758 247.516 259.432 250.094C243.843 267.42 223.924 280.97 201.399 289.571C196.838 291.311 192.169 292.845 187.394 294.173C152.911 302.656 116.378 300.51 83.3321 288.061C50.6496 274.568 24.2389 250.737 8.84343 220.849C6.77443 216.826 4.91386 212.7 3.26172 208.473C32.076 188.947 88.8541 160.987 150.736 188.156C167.853 195.671 183.138 202.521 196.589 208.707C230.723 224.358 253.441 235.642 266.094 242.132Z" fill="#3F3D56"/>
<path d="M259.432 250.094C243.317 267.959 222.605 281.788 199.199 290.31C175.794 298.831 150.448 301.771 125.493 298.859C100.538 295.947 76.775 287.276 56.391 273.644C36.0071 260.012 19.6565 241.857 8.84344 220.849C32.9082 203.246 88.4127 171.611 149.324 198.35C164.989 205.228 178.974 211.497 191.279 217.158C227.151 233.605 249.248 244.782 259.432 250.094Z" fill="#80E336"/>
<path d="M216.958 282.634C211.918 285.219 206.724 287.535 201.399 289.571C183.278 296.479 163.866 300.022 144.267 300C121.075 299.992 98.2017 295.01 77.4424 285.446C56.6831 275.882 38.6034 261.996 24.623 244.88C60.4214 241.388 159.375 236.68 216.958 282.634Z" fill="#3F3D56"/>
<path d="M201.399 289.571C173.3 300.259 142.356 302.805 112.66 296.872C82.9637 290.939 55.9136 276.808 35.0876 256.346C48.1085 254.577 150.336 242.426 201.399 289.571Z" fill="#80E336"/>
<path d="M269.014 84.4605V84.4647C161.986 11.2643 39.3635 62.7866 38.4164 63.1822V63.1779C52.3151 50.3226 68.8187 40.1299 86.9822 33.1835C105.146 26.2371 124.612 22.6735 144.267 22.6967C196.3 22.6967 242.14 47.2244 269.014 84.4605Z" fill="#E6E6E6"/>
<path d="M47.0006 164.036C65.1062 161.017 74.3841 130.866 67.7234 96.6924C61.0628 62.5192 40.9858 37.2643 22.8803 40.2839C4.77473 43.3036 -4.50318 73.4544 2.15747 107.628C8.81813 141.801 28.8951 167.056 47.0006 164.036Z" fill="#3F3D56"/>
<path d="M51.6537 203.946C50.5803 128.885 23.4306 58.4442 23.1566 57.7421L20.6806 58.5682C20.9533 59.267 47.954 129.338 49.0218 203.979L51.6537 203.946Z" fill="#80E336"/>
<path d="M3.48479 93.6685L2.67471 95.9857L35.1783 105.709L35.9883 103.392L3.48479 93.6685Z" fill="#80E336"/>
<path d="M64.6267 91.0584L37.8459 110.678L39.4804 112.587L66.2612 92.9675L64.6267 91.0584Z" fill="#80E336"/>
<path d="M134.059 153.215C153.967 153.215 170.105 122.754 170.105 85.1795C170.105 47.6047 153.967 17.1442 134.059 17.1442C114.151 17.1442 98.0127 47.6047 98.0127 85.1795C98.0127 122.754 114.151 153.215 134.059 153.215Z" fill="#3F3D56"/>
<path d="M130.73 196.542C145.167 116.417 130.875 36.5813 130.729 35.7849L127.921 36.2249C128.067 37.0174 142.276 116.434 127.921 196.11L130.73 196.542Z" fill="#80E336"/>
<path d="M102.324 70.5499L100.98 72.8735L133.575 89.0014L134.919 86.6777L102.324 70.5499Z" fill="#80E336"/>
<path d="M167.977 78.6287L135.385 94.7657L136.729 97.089L169.321 80.952L167.977 78.6287Z" fill="#80E336"/>
<path d="M290.633 131.33C277.407 124.461 263.589 118.617 249.321 113.858C170.428 87.4504 92.1967 97.6281 61.5754 135.421C85.4058 89.1219 170.437 74.5635 256.246 103.285C266.233 106.625 276.007 110.487 285.52 114.853C287.592 120.242 289.3 125.745 290.633 131.33Z" fill="#E6E6E6"/>
<path d="M184.082 56.825L189.459 52.8469C185.282 52.4206 183.565 54.5279 182.863 56.1959C179.6 54.9424 176.047 56.5851 176.047 56.5851L186.805 60.1979C186.263 58.857 185.318 57.6869 184.082 56.825Z" fill="#3F3D56"/>
</g>
<defs>
<clipPath id="clip0_11_641">
<rect width="300" height="300" fill="white"/>
</clipPath>
</defs>
</svg>
