<svg width="292" height="319" viewBox="0 0 292 319" fill="none" xmlns="http://www.w3.org/2000/svg">
<g clip-path="url(#clip0_11_481)">
<path d="M6.89082 0C5.06389 0.00233902 3.31237 0.830587 2.02053 2.30303C0.728697 3.77546 0.00205213 5.77184 0 7.85418V270.319C0.00205213 272.401 0.728697 274.398 2.02053 275.87C3.31237 277.343 5.06389 278.171 6.89082 278.173H182.439C184.266 278.171 186.018 277.343 187.31 275.87C188.601 274.398 189.328 272.401 189.33 270.319V7.85418C189.328 5.77185 188.601 3.77547 187.31 2.30303C186.018 0.830597 184.266 0.00234973 182.439 0H6.89082Z" fill="#E6E6E6"/>
<path d="M177.168 105.578H12.1624C10.2176 105.575 8.35305 104.694 6.97788 103.126C5.6027 101.559 4.82916 99.4337 4.82697 97.2171V43.6191C4.82916 41.4025 5.6027 39.2773 6.97788 37.7099C8.35305 36.1424 10.2176 35.2607 12.1624 35.2582H177.168C179.113 35.2607 180.977 36.1424 182.353 37.7098C183.728 39.2773 184.501 41.4025 184.503 43.6191V97.2171C184.501 99.4338 183.728 101.559 182.353 103.126C180.977 104.694 179.113 105.576 177.168 105.578Z" fill="white"/>
<path d="M177.168 187.408H12.1624C10.2176 187.406 8.35307 186.524 6.97789 184.956C5.60271 183.389 4.82916 181.264 4.82697 179.047V125.449C4.82916 123.232 5.6027 121.107 6.97788 119.54C8.35305 117.972 10.2176 117.091 12.1624 117.088H177.168C179.113 117.091 180.977 117.972 182.353 119.54C183.728 121.107 184.501 123.232 184.503 125.449V179.047C184.501 181.264 183.728 183.389 182.353 184.956C180.977 186.524 179.113 187.406 177.168 187.408Z" fill="white"/>
<path d="M12.1624 199.425C10.3354 199.427 8.58391 200.256 7.29208 201.728C6.00024 203.201 5.27359 205.197 5.27155 207.279V260.877C5.27359 262.959 6.00024 264.956 7.29208 266.428C8.58391 267.901 10.3354 268.729 12.1624 268.731H177.168C178.995 268.729 180.746 267.901 182.038 266.428C183.33 264.956 184.057 262.959 184.059 260.877V207.279C184.057 205.197 183.33 203.201 182.038 201.728C180.746 200.256 178.995 199.427 177.168 199.425H12.1624Z" fill="white"/>
<path d="M179.511 16.3415C182.284 16.3415 184.532 13.7795 184.532 10.6191C184.532 7.45875 182.284 4.89676 179.511 4.89676C176.739 4.89676 174.491 7.45875 174.491 10.6191C174.491 13.7795 176.739 16.3415 179.511 16.3415Z" fill="white"/>
<path d="M21.4913 157.97C24.2641 157.97 26.5118 155.408 26.5118 152.248C26.5118 149.088 24.2641 146.526 21.4913 146.526C18.7186 146.526 16.4708 149.088 16.4708 152.248C16.4708 155.408 18.7186 157.97 21.4913 157.97Z" fill="#E6E6E6"/>
<path d="M79.227 157.079H40.0672C38.943 157.079 37.8649 156.57 37.07 155.664C36.2751 154.758 35.8286 153.529 35.8286 152.248C35.8286 150.967 36.2751 149.738 37.07 148.832C37.8649 147.926 38.943 147.417 40.0672 147.417H79.227C80.3512 147.417 81.4293 147.926 82.2242 148.832C83.0191 149.738 83.4656 150.967 83.4656 152.248C83.4656 153.529 83.0191 154.758 82.2242 155.664C81.4293 156.57 80.3512 157.079 79.227 157.079Z" fill="#E6E6E6"/>
<path d="M110.731 158.257C113.503 158.257 115.751 155.695 115.751 152.534C115.751 149.374 113.503 146.812 110.731 146.812C107.958 146.812 105.71 149.374 105.71 152.534C105.71 155.695 107.958 158.257 110.731 158.257Z" fill="#E6E6E6"/>
<path d="M168.466 157.365H129.306C128.182 157.365 127.104 156.856 126.309 155.95C125.514 155.044 125.068 153.816 125.068 152.534C125.068 151.253 125.514 150.024 126.309 149.118C127.104 148.212 128.182 147.703 129.306 147.703H168.466C169.59 147.703 170.669 148.212 171.464 149.118C172.258 150.024 172.705 151.253 172.705 152.534C172.705 153.816 172.258 155.044 171.464 155.95C170.669 156.856 169.59 157.365 168.466 157.365Z" fill="#E6E6E6"/>
<path d="M182.126 8.44856L181.416 7.63933L179.512 9.81012L177.607 7.63933L176.897 8.44856L178.802 10.6194L176.897 12.7896L177.607 13.5989L179.512 11.4281L181.416 13.5989L182.126 12.7896L180.222 10.6194L182.126 8.44856Z" fill="#E6E6E6"/>
<path d="M21.4913 76.1404C24.2641 76.1404 26.5118 73.5784 26.5118 70.418C26.5118 67.2576 24.2641 64.6956 21.4913 64.6956C18.7186 64.6956 16.4708 67.2576 16.4708 70.418C16.4708 73.5784 18.7186 76.1404 21.4913 76.1404Z" fill="#E6E6E6"/>
<path d="M168.843 74.6771H49.3551C48.2317 74.6758 47.1546 74.1662 46.3607 73.2603C45.5667 72.3544 45.1207 71.1263 45.1207 69.8458C45.1207 68.5653 45.5667 67.3372 46.3607 66.4313C47.1546 65.5254 48.2317 65.0158 49.3551 65.0145H168.843C169.966 65.0158 171.043 65.5254 171.837 66.4313C172.631 67.3372 173.077 68.5653 173.077 69.8458C173.077 71.1263 172.631 72.3544 171.837 73.2603C171.043 74.1662 169.966 74.6758 168.843 74.6771Z" fill="#E6E6E6"/>
<path d="M148.008 74.6771H41.5733C40.4491 74.6771 39.371 74.1681 38.5761 73.262C37.7812 72.356 37.3346 71.1271 37.3346 69.8458C37.3346 68.5645 37.7812 67.3356 38.5761 66.4296C39.371 65.5235 40.4491 65.0145 41.5733 65.0145H148.008C149.131 65.0158 150.208 65.5254 151.002 66.4313C151.796 67.3372 152.242 68.5653 152.242 69.8458C152.242 71.1263 151.796 72.3544 151.002 73.2603C150.208 74.1662 149.131 74.6758 148.008 74.6771Z" fill="#16BCFC"/>
<path d="M21.4913 239.8C24.2641 239.8 26.5118 237.238 26.5118 234.078C26.5118 230.918 24.2641 228.356 21.4913 228.356C18.7186 228.356 16.4708 230.918 16.4708 234.078C16.4708 237.238 18.7186 239.8 21.4913 239.8Z" fill="#E6E6E6"/>
<path d="M168.843 238.337H49.3551C48.2309 238.337 47.1528 237.828 46.3579 236.922C45.563 236.016 45.1165 234.787 45.1165 233.506C45.1165 232.225 45.563 230.996 46.3579 230.09C47.1528 229.184 48.2309 228.675 49.3551 228.675H168.843C169.967 228.675 171.045 229.184 171.84 230.09C172.635 230.996 173.082 232.225 173.082 233.506C173.082 234.787 172.635 236.016 171.84 236.922C171.045 237.828 169.967 238.337 168.843 238.337Z" fill="#E6E6E6"/>
<path d="M105.208 238.337H41.5733C40.4492 238.337 39.3711 237.828 38.5762 236.922C37.7813 236.016 37.3347 234.787 37.3347 233.506C37.3347 232.225 37.7813 230.996 38.5762 230.09C39.3711 229.184 40.4492 228.675 41.5733 228.675H105.208C106.332 228.675 107.41 229.184 108.205 230.09C109 230.996 109.447 232.225 109.447 233.506C109.447 234.787 109 236.016 108.205 236.922C107.41 237.828 106.332 238.337 105.208 238.337Z" fill="#16BCFC"/>
<path d="M46.9703 157.079H40.0672C38.943 157.079 37.8649 156.57 37.07 155.664C36.2751 154.758 35.8286 153.529 35.8286 152.248C35.8286 150.967 36.2751 149.738 37.07 148.832C37.8649 147.926 38.943 147.417 40.0672 147.417H46.9703C48.0945 147.417 49.1726 147.926 49.9675 148.832C50.7624 149.738 51.2089 150.967 51.2089 152.248C51.2089 153.529 50.7624 154.758 49.9675 155.664C49.1726 156.57 48.0945 157.079 46.9703 157.079Z" fill="#16BCFC"/>
<path d="M150.895 157.365H129.306C128.182 157.365 127.104 156.856 126.309 155.95C125.514 155.044 125.068 153.816 125.068 152.534C125.068 151.253 125.514 150.024 126.309 149.118C127.104 148.212 128.182 147.703 129.306 147.703H150.895C152.018 147.704 153.095 148.214 153.889 149.12C154.683 150.026 155.129 151.254 155.129 152.534C155.129 153.815 154.683 155.043 153.889 155.949C153.095 156.855 152.018 157.364 150.895 157.365Z" fill="#16BCFC"/>
<path d="M256.862 215.264C257.513 215.189 258.141 214.953 258.702 214.572C259.264 214.191 259.745 213.674 260.113 213.058C260.48 212.442 260.724 211.741 260.828 211.006C260.933 210.271 260.894 209.518 260.715 208.802L273.73 198.417L266.054 194.953L254.872 205.345C253.836 205.767 252.971 206.607 252.443 207.707C251.914 208.807 251.757 210.089 252.002 211.312C252.247 212.535 252.878 213.612 253.774 214.341C254.669 215.069 255.768 215.397 256.862 215.264L256.862 215.264Z" fill="#A0616A"/>
<path d="M262.929 207.68C262.649 207.68 262.372 207.612 262.117 207.482C261.827 207.338 261.572 207.118 261.373 206.838C261.173 206.559 261.035 206.229 260.971 205.877L260.097 201.252C260.022 200.856 260.041 200.444 260.153 200.058C260.264 199.673 260.464 199.329 260.73 199.061L268.448 191.315L260.83 173.121C260.3 171.856 260.209 170.409 260.575 169.071C260.942 167.732 261.738 166.601 262.805 165.904C263.872 165.207 265.131 164.995 266.329 165.31C267.528 165.626 268.577 166.447 269.267 167.607L279.024 184.01C279.749 185.218 280.249 186.583 280.493 188.02C280.738 189.456 280.721 190.935 280.445 192.364C280.139 193.875 279.56 195.296 278.746 196.538C277.932 197.78 276.9 198.816 275.716 199.579L263.93 207.37C263.626 207.572 263.281 207.68 262.929 207.68Z" fill="#CCCCCC"/>
<path d="M219.688 197.791C220.232 198.205 220.848 198.478 221.494 198.591C222.14 198.703 222.8 198.653 223.427 198.444C224.054 198.234 224.634 197.871 225.124 197.378C225.615 196.886 226.005 196.277 226.266 195.595L242.105 197.008L238.112 188.773L223.684 188.693C222.649 188.268 221.512 188.29 220.491 188.755C219.469 189.221 218.633 190.098 218.14 191.219C217.648 192.341 217.533 193.629 217.819 194.841C218.104 196.052 218.769 197.102 219.688 197.791Z" fill="#A0616A"/>
<path d="M257.564 154.668C263.594 154.668 268.483 149.096 268.483 142.222C268.483 135.349 263.594 129.777 257.564 129.777C251.533 129.777 246.645 135.349 246.645 142.222C246.645 149.096 251.533 154.668 257.564 154.668Z" fill="#A0616A"/>
<path d="M225.414 312.479L220.19 310.707L223.699 286.898L231.409 289.513L225.414 312.479Z" fill="#A0616A"/>
<path d="M225.24 318.703L208.395 312.99L208.459 312.748C208.715 311.766 209.138 310.852 209.704 310.057C210.27 309.262 210.968 308.602 211.758 308.114C212.548 307.627 213.415 307.322 214.308 307.216C215.202 307.11 216.105 307.206 216.966 307.498L216.966 307.498L227.254 310.987L225.24 318.703Z" fill="#2F2E41"/>
<path d="M282.647 312.174L277.197 312.174L274.604 288.212L279.981 288.213L282.647 312.174Z" fill="#A0616A"/>
<path d="M284.037 318.196L266.463 318.195V317.942C266.463 316.918 266.64 315.904 266.984 314.958C267.327 314.012 267.831 313.153 268.466 312.429C269.102 311.705 269.856 311.131 270.686 310.739C271.516 310.347 272.405 310.145 273.303 310.145H273.304L284.037 310.146L284.037 318.196Z" fill="#2F2E41"/>
<path d="M227.424 305.434H221.951C221.658 305.434 221.368 305.361 221.102 305.219C220.837 305.077 220.602 304.87 220.414 304.613C220.226 304.357 220.091 304.056 220.016 303.732C219.942 303.409 219.931 303.071 219.984 302.742L227.648 255.178C227.641 220.525 239.603 200.454 239.724 200.255L239.87 200.015L262.226 202.094L284.509 302.194C284.582 302.521 284.59 302.863 284.533 303.195C284.475 303.526 284.354 303.839 284.178 304.111C284.002 304.382 283.775 304.606 283.513 304.765C283.252 304.925 282.963 305.016 282.667 305.032L276.518 305.372C276.102 305.397 275.69 305.272 275.339 305.015C274.988 304.759 274.717 304.383 274.564 303.941L251.006 236.817C250.96 236.67 250.873 236.545 250.758 236.459C250.644 236.373 250.509 236.331 250.372 236.34C250.236 236.341 250.103 236.391 249.993 236.483C249.883 236.574 249.8 236.702 249.757 236.85L229.313 303.903C229.177 304.35 228.921 304.738 228.583 305.012C228.244 305.287 227.839 305.434 227.424 305.434Z" fill="#2F2E41"/>
<path d="M262.694 204.104L262.523 204.09L238.721 202.042L242.896 171.776C243.354 168.397 244.758 165.278 246.899 162.884C249.04 160.49 251.803 158.95 254.775 158.492C254.958 158.463 255.142 158.434 255.328 158.407C257.663 158.056 260.037 158.396 262.224 159.394C264.411 160.391 266.335 162.012 267.814 164.102C269.327 166.204 270.341 168.714 270.758 171.391C271.175 174.068 270.981 176.823 270.194 179.389L262.694 204.104Z" fill="#CCCCCC"/>
<path d="M250.586 196.2C249.62 197.085 248.51 197.743 247.32 198.137C246.13 198.532 244.884 198.654 243.652 198.498L229.877 196.808C229.562 196.77 229.259 196.646 228.994 196.448C228.729 196.251 228.509 195.984 228.353 195.67C228.196 195.357 228.106 195.005 228.092 194.644C228.078 194.284 228.139 193.924 228.27 193.596L230.107 188.999C230.256 188.625 230.492 188.303 230.789 188.069C231.086 187.835 231.433 187.697 231.794 187.669L241.834 186.902L245.131 167.099C245.344 165.827 245.938 164.68 246.813 163.855C247.687 163.03 248.787 162.577 249.922 162.576C250.608 162.573 251.287 162.736 251.913 163.055C252.539 163.374 253.099 163.841 253.554 164.426C254.417 165.552 254.861 167.017 254.79 168.51L254.151 188.144C254.109 189.629 253.796 191.087 253.232 192.427C252.668 193.766 251.867 194.957 250.877 195.924C250.781 196.019 250.684 196.111 250.586 196.2Z" fill="#CCCCCC"/>
<path d="M249.26 139.114C247.901 139.715 246.468 140.074 245.013 140.179C243.549 140.2 241.993 139.622 241.192 138.351C240.885 137.796 240.686 137.172 240.61 136.521C240.534 135.871 240.583 135.209 240.752 134.582C241.056 133.31 241.601 132.13 242.351 131.127C243.1 130.123 244.035 129.321 245.088 128.776C246.194 128.204 247.389 127.887 248.603 127.842C249.818 127.798 251.028 128.027 252.164 128.517C252.986 125.67 256.08 124.121 258.944 124.033C264.795 123.854 270.026 128.401 272.567 133.869C275.109 139.336 275.481 145.585 275.639 151.653C275.677 153.133 275.693 154.676 275.078 156.011C274.163 158.001 272.082 159.072 270.12 159.921C264.977 162.146 259.671 163.846 254.264 165.002C256.86 163.111 257.683 159.04 256.039 156.226C255.235 154.849 253.913 153.703 253.7 152.109C253.443 150.197 254.875 148.525 255.404 146.674C255.671 145.673 255.684 144.605 255.439 143.595C255.194 142.586 254.703 141.677 254.022 140.974C253.281 140.24 252.394 139.722 251.439 139.464C250.484 139.205 249.488 139.215 248.537 139.491" fill="#2F2E41"/>
<path d="M291.555 319H199.53C199.412 319 199.299 318.947 199.215 318.852C199.132 318.757 199.085 318.628 199.085 318.493C199.085 318.359 199.132 318.23 199.215 318.135C199.299 318.04 199.412 317.987 199.53 317.987H291.555C291.673 317.987 291.786 318.04 291.87 318.135C291.953 318.23 292 318.359 292 318.493C292 318.628 291.953 318.757 291.87 318.852C291.786 318.947 291.673 319 291.555 319Z" fill="#CCCCCC"/>
</g>
<defs>
<clipPath id="clip0_11_481">
<rect width="292" height="319" fill="white"/>
</clipPath>
</defs>
</svg>
