<svg width="292" height="319" viewBox="0 0 292 319" fill="none" xmlns="http://www.w3.org/2000/svg">
<g clip-path="url(#clip0_11_513)">
<path opacity="0.1" d="M76.3359 0.355325C103.574 5.38115 125.689 40.329 150.229 62.1379C155.697 66.9979 161.429 71.2776 167.488 72.5449C187.562 76.7456 206.072 47.6368 226.24 50.0135C242.585 51.9402 256.447 75.2808 262.328 102.735C268.209 130.19 267.307 160.898 264.042 189.718C258.928 234.726 247.6 279.003 227.88 308.277C224.626 313.11 220.992 317.63 216.812 318.728C209.848 320.579 203.39 312.624 197.362 306.047C170.16 276.35 135.77 268.809 105.398 285.88C95.1123 291.66 85.2745 300.093 74.7485 304.254C54.4784 312.253 31.5401 302.146 17.7777 274.249C4.01537 246.353 1.77777 200.5 14.8899 171.601C20.3639 159.539 27.9084 151.024 33.6547 139.385C48.0936 110.169 42.7632 80.6304 40.9767 46.3695C39.2164 12.61 60.4238 -2.57805 76.3359 0.355325Z" fill="#16BCFC"/>
<g opacity="0.2">
<path d="M200.147 215.167C200.147 215.167 208.204 226.028 203.662 242.144C199.119 258.26 211.458 285.059 211.458 285.059L211.081 284.976C194.533 281.028 186.312 255.528 195.514 236.577C198.929 229.546 201.738 221.279 200.147 215.167Z" fill="#16BCFC"/>
<path opacity="0.1" d="M200.147 215.364C200.147 215.364 208.204 226.225 203.662 242.341C199.119 258.457 211.458 285.256 211.458 285.256L211.081 285.173C194.533 281.225 186.312 255.725 195.514 236.775C198.929 229.723 201.738 221.46 200.147 215.364Z" fill="black"/>
<path d="M200.147 215.167C200.147 215.167 204.696 228.48 200.147 239.341C195.599 250.202 199.368 280.681 211.453 285.059" stroke="#535461" stroke-miterlimit="10"/>
<path d="M185.799 259.109C185.799 259.109 194.993 257.135 195.83 268.24C196.668 279.346 213.509 280.874 213.509 280.874L213.192 281.158C199.286 293.464 185.996 288.995 188.005 272.658C188.746 266.598 188.684 260.494 185.799 259.109Z" fill="#16BCFC"/>
<path d="M185.799 259.109C185.799 259.109 192.937 261.221 192.348 269.966C191.759 278.71 202.944 289.196 213.509 280.886" stroke="#535461" stroke-miterlimit="10"/>
</g>
<g opacity="0.2">
<path d="M104.587 198.064C104.587 198.064 111.282 207.089 107.516 220.477C103.749 233.865 113.994 256.136 113.994 256.136L113.681 256.065C99.9331 252.792 93.1003 231.587 100.744 215.85C103.574 209.995 105.908 203.13 104.587 198.064Z" fill="#16BCFC"/>
<path opacity="0.1" d="M104.587 198.214C104.587 198.214 111.282 207.239 107.516 220.627C103.749 234.015 113.994 256.286 113.994 256.286L113.666 256.226C99.9185 252.954 93.0856 231.749 100.73 216.012C103.574 210.145 105.908 203.28 104.587 198.214Z" fill="black"/>
<path d="M104.587 198.064C104.587 198.064 108.365 209.119 104.587 218.148C100.809 227.177 103.94 252.496 113.98 256.136" stroke="#535461" stroke-miterlimit="10"/>
<path d="M92.6639 234.564C92.6639 234.564 100.311 232.933 100.999 242.152C101.687 251.37 115.687 252.673 115.687 252.673L115.423 252.91C103.869 263.136 92.825 259.424 94.4914 245.847C95.1094 240.782 95.0596 235.697 92.6639 234.564Z" fill="#16BCFC"/>
<path d="M92.6639 234.564C92.6639 234.564 98.5917 236.317 98.1056 243.585C97.6194 250.853 106.909 259.567 115.678 252.665" stroke="#535461" stroke-miterlimit="10"/>
</g>
<g opacity="0.2">
<path d="M76.4706 141.213C76.4706 141.213 83.1658 150.238 79.3994 163.626C75.633 177.013 85.8779 199.284 85.8779 199.284L85.5645 199.213C71.8168 195.94 64.9839 174.735 72.628 158.999C75.4573 153.144 77.7915 146.278 76.4706 141.213Z" fill="#16BCFC"/>
<path opacity="0.1" d="M76.4706 141.363C76.4706 141.363 83.1658 150.388 79.3994 163.776C75.633 177.163 85.8779 199.434 85.8779 199.434L85.5499 199.375C71.8021 196.102 64.9693 174.897 72.6134 159.16C75.4573 153.294 77.7915 146.428 76.4706 141.363Z" fill="black"/>
<path d="M76.4706 141.213C76.4706 141.213 80.2488 152.267 76.4706 161.296C72.6925 170.325 75.8234 195.644 85.8632 199.284" stroke="#535461" stroke-miterlimit="10"/>
<path d="M64.5475 177.712C64.5475 177.712 72.1946 176.082 72.8828 185.3C73.5711 194.519 87.5707 195.822 87.5707 195.822L87.3071 196.059C75.7531 206.284 64.7086 202.573 66.3751 188.996C66.9931 183.93 66.9433 178.845 64.5475 177.712Z" fill="#16BCFC"/>
<path d="M64.5475 177.712C64.5475 177.712 70.4754 179.465 69.9892 186.733C69.503 194.002 78.7931 202.715 87.5619 195.814" stroke="#535461" stroke-miterlimit="10"/>
</g>
<path d="M4.32289 233.873V228.492L86.121 197.567L100.75 195.324V200.255L19.2861 239.696L4.32289 233.873Z" fill="#DFE5EE"/>
<path opacity="0.05" d="M4.32289 233.873V228.492L86.121 197.567L100.75 195.324V200.255L19.2861 239.696L4.32289 233.873Z" fill="black"/>
<path d="M4.32289 228.492L86.121 192.186L100.419 195.324L19.2861 234.319L4.32289 228.492Z" fill="#DFE5EE"/>
<path d="M22.2793 146.468H16.9577V229.838H22.2793V146.468Z" fill="#DFE5EE"/>
<path d="M86.121 127.193H80.7994V200.255H86.121V127.193Z" fill="#DFE5EE"/>
<path d="M99.4206 104.334V126.747L32.9986 146.748L25.1407 149.117L5.65256 154.983L0 152.741V126.747L30.1401 119.001L37.6408 117.075L92.4384 102.992L99.4206 104.334Z" fill="#DFE5EE"/>
<path opacity="0.05" d="M99.4206 104.334V126.747L32.9986 146.748L25.1407 149.117L5.65256 154.983L0 152.741V126.747L30.1401 119.001L37.6408 117.075L92.4384 102.992L99.4206 104.334Z" fill="black"/>
<path opacity="0.05" d="M22.2793 146.468V150.874L16.9577 152.476V146.468H22.2793Z" fill="black"/>
<path opacity="0.05" d="M86.121 127.193V131.651L80.7994 133.25V127.193H86.121Z" fill="black"/>
<path d="M99.4206 104.334V126.747L72.4523 134.868L64.609 137.229L32.9986 146.748L25.1407 149.117L5.65256 154.983L5.98644 129.436L33.0689 122.16L40.6457 120.126H40.6486L71.6088 111.808L79.171 109.775L99.4206 104.334Z" fill="#DFE5EE"/>
<path d="M40.6486 120.126L32.9986 146.748L25.1407 149.117L33.0689 122.16L30.1401 119.001L37.6408 117.075L40.6457 120.126H40.6486Z" fill="#16BCFC"/>
<path d="M79.5517 110.162L72.4523 134.868L64.609 137.229L71.972 112.195L71.6088 111.808L69.0432 109.036L76.5438 107.11L79.171 109.775L79.5488 110.162H79.5517Z" fill="#16BCFC"/>
<path opacity="0.05" d="M18.1233 228.381L23.442 226.699V228.381L18.1233 230.063V228.381Z" fill="black"/>
<path opacity="0.05" d="M81.6311 198.799L86.9498 197.117V198.799L81.6311 200.48V198.799Z" fill="black"/>
<path d="M193.221 137.592C184.742 143.613 175.964 136.803 175.964 136.803C175.827 137.151 175.669 137.483 175.493 137.798C175.385 137.687 175.273 137.573 175.162 137.45C171.519 133.435 167.486 123.956 167.486 123.956L159.628 104.093C158.665 101.706 157.939 99.1593 157.469 96.5172C156.175 88.9449 152.042 88.6212 152.042 88.6212H147.201C144.858 88.6212 141.472 89.2845 138.122 90.2004C138.21 90.0773 138.269 89.9201 138.288 89.7503L138.127 89.7938L139.926 87.425C139.926 87.425 145.072 84.614 145.678 78.5932L148.402 74.9808C148.402 74.9808 148.489 74.665 148.612 74.1083L149.517 72.5725C153.46 65.9201 153.744 65.8095 153.744 65.8095L165.696 56.2751C165.696 56.2751 169.987 55.4539 168.197 39.2789C166.408 23.1038 167.612 21.118 167.612 21.118C167.612 21.118 170.862 4.91134 164.63 6.92878C158.398 8.94622 161.215 22.7998 161.215 22.7998L161.648 25.8595C162.192 29.6914 162.162 33.6309 161.561 37.447C160.913 41.5727 160.19 46.6695 160.372 47.8855C160.691 50.0056 157.091 52.6903 157.091 52.6903L155.056 54.2932C152.901 55.9889 150.363 56.5725 147.913 55.9355L147.804 55.7145L146.586 54.4827C146.549 54.6514 146.52 54.8228 146.498 54.9959L146 54.4827V54.5222C146 54.38 146 54.2458 146.023 54.0958C146.166 52.5774 146.431 51.0843 146.811 49.6424C146.843 49.5082 146.884 49.366 146.92 49.2476C149.197 49.0615 151.336 47.7165 152.905 45.4846C154.475 43.2528 155.356 40.3008 155.372 37.2259C155.372 35.9595 155.222 34.7012 154.927 33.499C155.157 33.5567 155.394 33.5567 155.624 33.499C156.719 33.2621 157.882 32.5041 158.45 31.1973C158.751 30.4796 158.889 29.6592 158.848 28.8371C158.807 28.015 158.588 27.227 158.219 26.5702C158.079 26.3301 157.922 26.1092 157.75 25.9109C156.711 24.3317 154.971 23.9369 153.588 22.8748C152.273 21.876 151.275 20.281 150.051 19.0926C147.737 16.8383 144.779 16.1593 141.955 15.5394C140.743 15.2749 139.51 15.0104 138.291 15.2275C136.751 15.5039 135.333 16.5422 134.127 17.8411C133.699 18.2556 133.341 18.7869 133.075 19.4006C132.627 20.585 132.823 21.9747 132.744 23.2854C132.551 26.4754 130.694 29.0732 128.644 30.7669C127.385 31.8053 126.008 32.6343 124.951 34.028C123.894 35.4216 123.27 37.6207 123.929 39.3815C124.277 40.3132 124.965 41.091 124.971 42.1451C124.948 42.6087 124.848 43.0594 124.678 43.4638C123.975 45.4436 123.025 47.2463 121.87 48.7936C117.594 47.4039 112.978 50.4596 112.978 50.4596L99.0516 51.2492C99.0516 51.2492 95.1153 48.841 89.9723 63.6934C84.8294 78.5459 83.0077 79.3513 83.0077 79.3513C83.0077 79.3513 73.6355 90.5913 79.6776 93.4023C85.7197 96.2132 89.0497 82.561 89.0497 82.561L92.4032 74.1596C92.4032 74.1596 99.9712 64.5225 100.577 62.5169C101.184 60.5113 104.815 60.5113 104.815 60.5113L119.579 61.3009C119.599 61.4616 119.611 61.6238 119.615 61.7865C119.65 64.0132 118.1 65.7345 116.542 66.5597C115.558 67.0887 114.434 67.4875 113.833 68.6482C113.233 69.8089 113.376 71.4947 113.98 72.6791C114.164 73.033 114.379 73.3551 114.621 73.6385C115.254 74.5185 116.027 75.1935 116.882 75.6125C117.591 75.9932 118.328 76.2686 119.082 76.4337C118.775 78.1377 118.359 79.8022 117.837 81.4082L118.423 81.7477L118.229 82.4426C117.403 85.3996 115.702 91.2348 114.196 94.7643C114.182 94.7643 111.461 97.8754 109.349 100.686C107.735 102.826 103.846 123.427 115.227 123.798L117.825 126.38H117.878C120.189 130.778 127.818 138.003 127.818 138.003L114.325 139.077C113.652 139.132 112.982 139.241 112.319 139.405C112.098 139.457 111.878 139.516 111.657 139.582C109.279 140.285 106.646 140.036 105.234 139.811C104.3 137.442 99.9624 138.406 99.9624 138.406C99.9624 138.406 99.3561 150.451 100.255 157.273C101.154 164.095 104.493 159.682 104.493 159.682C103.887 153.661 108.886 149.231 108.886 149.231C109.522 148.801 110.275 148.28 111.159 147.652C113.965 145.623 127.311 148.726 131.438 149.752C132.347 149.98 133.27 150.086 134.194 150.068C146.023 149.808 142.951 142.03 142.951 142.03L140.57 135.713C140.179 134.663 139.831 133.585 139.527 132.484C137.425 124.982 134.156 120.853 131.652 118.642C131.787 118.413 131.921 118.184 132.053 117.943C132.053 117.943 131.854 117.88 131.552 117.758C133.667 116.301 135.067 115.136 135.067 115.136C135.067 115.136 148.993 103.896 148.39 106.707C147.787 109.518 151.418 120.355 158.078 127.983C158.272 128.204 158.459 128.429 158.646 128.658L158.828 128.883L159.2 129.357L159.402 129.621L159.748 130.087L159.941 130.356L160.307 130.885L160.454 131.098C160.62 131.345 160.784 131.595 160.946 131.848L161.051 132.018C161.176 132.218 161.3 132.418 161.423 132.618L161.59 132.898L161.883 133.404L162.053 133.7L162.346 134.217L162.498 134.489L162.838 135.125L162.92 135.275C163.058 135.538 163.194 135.801 163.327 136.065L163.426 136.266L163.719 136.862L163.842 137.119L164.103 137.671L164.217 137.916L164.489 138.52L164.569 138.694C164.805 139.22 165.029 139.747 165.242 140.273L165.277 140.36L165.556 141.039L165.599 141.15L165.866 141.829L165.884 141.876C166.634 143.808 167.306 145.794 167.896 147.826C167.555 147.936 167.21 148.015 166.862 148.063C165.046 158.904 169.89 158.904 169.89 158.904C169.89 158.904 187.756 155.291 194.416 146.057C201.076 136.823 193.221 137.592 193.221 137.592Z" fill="url(#paint0_linear_11_513)"/>
<path d="M128.427 117.059C128.427 117.059 135.79 119.633 139.463 132.938C139.758 134.014 140.095 135.068 140.473 136.096L142.778 142.326C142.778 142.326 145.751 149.973 134.308 150.222C133.414 150.239 132.521 150.135 131.643 149.91C127.651 148.904 114.741 145.852 112.02 147.845C110.5 149.007 108.936 150.061 107.334 151.004L104.113 146.266L105.284 139.949C105.284 139.949 109.153 140.929 112.495 139.922C113.344 139.664 114.206 139.497 115.075 139.424L128.134 138.378C128.134 138.378 117.884 128.508 117.884 124.955C117.884 121.402 128.427 117.059 128.427 117.059Z" fill="#F8BDC5"/>
<path opacity="0.05" d="M106.461 141.142C106.461 141.142 103.24 148.224 109.827 149.433C109.827 149.433 104.997 153.775 105.583 159.697C105.583 159.697 102.361 164.04 101.482 157.329C100.604 150.617 101.19 138.773 101.19 138.773C101.19 138.773 106.461 137.588 106.461 141.142Z" fill="black"/>
<path opacity="0.05" d="M128.427 117.059C128.427 117.059 135.79 119.633 139.463 132.938C139.758 134.014 140.095 135.068 140.473 136.096L142.778 142.326C142.778 142.326 145.751 149.973 134.308 150.222C133.414 150.239 132.521 150.135 131.643 149.91C127.651 148.904 114.741 145.852 112.02 147.845C110.5 149.007 108.936 150.061 107.334 151.004L104.113 146.266L105.284 139.949C105.284 139.949 109.153 140.929 112.495 139.922C113.344 139.664 114.206 139.497 115.075 139.424L128.134 138.378C128.134 138.378 117.884 128.508 117.884 124.955C117.884 121.402 128.427 117.059 128.427 117.059Z" fill="black"/>
<path opacity="0.05" d="M105.583 147.064L106.754 140.747C106.754 140.747 110.623 141.726 113.965 140.719C114.814 140.461 115.677 140.295 116.545 140.222L129.599 139.168C129.599 139.168 119.348 129.298 119.348 125.744C119.348 122.191 129.892 117.848 129.892 117.848L129.971 117.88C129.475 117.547 128.958 117.272 128.427 117.059C128.427 117.059 117.884 121.402 117.884 124.955C117.884 128.508 128.134 138.378 128.134 138.378L115.084 139.432C114.215 139.505 113.352 139.672 112.503 139.93C109.162 140.936 105.293 139.957 105.293 139.957L104.121 146.274L107.343 151.012C107.343 151.012 107.56 150.893 108.005 150.617L105.583 147.064Z" fill="black"/>
<path d="M106.461 141.142C106.461 141.142 103.24 148.224 109.827 149.433C109.827 149.433 104.997 153.775 105.583 159.697C105.583 159.697 102.361 164.04 101.482 157.329C100.604 150.617 101.19 138.773 101.19 138.773C101.19 138.773 106.461 137.588 106.461 141.142Z" fill="#FFD97B"/>
<path d="M97.7512 255.587V250.206L179.549 219.281L194.179 217.038V221.97L112.714 261.41L97.7512 255.587Z" fill="#DFE5EE"/>
<path opacity="0.05" d="M97.7512 255.587V250.206L179.549 219.281L194.179 217.038V221.97L112.714 261.41L97.7512 255.587Z" fill="black"/>
<path d="M97.7512 250.206L179.549 213.9L193.848 217.038L112.714 256.033L97.7512 250.206Z" fill="#DFE5EE"/>
<path d="M115.708 168.182H110.386V251.552H115.708V168.182Z" fill="#DFE5EE"/>
<path d="M179.549 148.907H174.228V221.97H179.549V148.907Z" fill="#DFE5EE"/>
<path d="M192.849 126.048V148.461L126.427 168.462L118.569 170.831L99.0808 176.698L93.4283 174.455V148.461L123.565 140.715L131.069 138.789L185.867 124.706L192.849 126.048Z" fill="#DFE5EE"/>
<path opacity="0.05" d="M192.849 126.048V148.461L126.427 168.462L118.569 170.831L99.0808 176.698L93.4283 174.455V148.461L123.565 140.715L131.069 138.789L185.867 124.706L192.849 126.048Z" fill="black"/>
<path opacity="0.05" d="M115.708 168.182V172.588L110.386 174.191V168.182H115.708Z" fill="black"/>
<path opacity="0.05" d="M179.549 148.907V153.365L174.228 154.964V148.907H179.549Z" fill="black"/>
<path d="M192.849 126.048V148.461L165.881 156.582L158.037 158.943L126.427 168.462L118.569 170.831L99.0808 176.698L99.4147 151.15L126.497 143.874L134.074 141.841H134.077L165.037 133.522L172.599 131.489L192.849 126.048Z" fill="#DFE5EE"/>
<path d="M134.077 141.841L126.427 168.462L118.569 170.831L126.497 143.874L123.565 140.715L131.069 138.789L134.074 141.841H134.077Z" fill="#16BCFC"/>
<path d="M172.98 131.876L165.881 156.582L158.037 158.943L165.4 133.909L165.037 133.522L162.471 130.751L169.972 128.824L172.599 131.489L172.977 131.876H172.98Z" fill="#16BCFC"/>
<path opacity="0.05" d="M111.552 250.095L116.87 248.413V250.095L111.552 251.777V250.095Z" fill="black"/>
<path opacity="0.05" d="M175.059 220.513L180.378 218.831V220.513L175.059 222.191V220.513Z" fill="black"/>
<path d="M164.782 57.9964L153.219 67.373C153.219 67.373 152.944 67.4835 149.119 74.0254L147.746 76.3942C144.84 81.4279 138.801 83.1058 138.801 83.1058L134.97 75.1624L134.162 65.5134L135.011 61.6168L135.685 58.5294L141.578 59.6664L143.95 61.3917L146.879 57.4437C147.107 57.5266 147.338 57.6016 147.57 57.6608C149.94 58.291 152.4 57.7218 154.479 56.0619L156.447 54.4827C156.447 54.4827 159.926 51.8414 159.619 49.7451C159.443 48.5606 160.143 43.5388 160.77 39.4802C161.351 35.7264 161.38 31.8551 160.855 28.0862L160.436 25.0778C160.436 25.0778 157.715 11.4493 163.74 9.47525C169.764 7.50124 166.625 23.4276 166.625 23.4276C166.625 23.4276 165.471 25.3779 167.21 41.2844C168.95 57.191 164.782 57.9964 164.782 57.9964Z" fill="#F8BDC5"/>
<path d="M145.722 55.8803C145.394 60.0573 146.879 60.6179 146.879 60.6179L147.757 65.3555V70.4879L145.121 76.41H138.678L133.113 72.8568V56.2751L132.235 52.3271C132.726 52.2845 133.216 52.1988 133.699 52.0704C136.525 51.3085 138.127 49.1923 139.029 46.8946C140.435 43.2979 140.142 39.2828 140.142 39.2828C140.142 39.2828 151.858 34.94 147.757 47.1788C147.213 48.8094 146.797 50.2425 146.483 51.5217C146.116 52.9342 145.861 54.3952 145.722 55.8803Z" fill="#F8BDC5"/>
<path d="M138.265 90.5399C138.246 90.715 138.185 90.877 138.092 91.0019C137.94 91.2403 137.813 91.5061 137.714 91.7915C136.344 95.2776 133.699 107.584 133.699 107.584L119.348 100.477L119.14 100.406L113.49 98.5031C115.093 96.9594 117.769 87.7013 118.859 83.7296C119.152 82.6202 119.348 81.9214 119.348 81.9214L134.578 83.8954C134.578 83.8954 138.526 88.5541 138.265 90.5399Z" fill="#F8BDC5"/>
<path d="M132.235 51.1269C132.235 51.1269 127.842 53.4957 123.448 51.1269C119.055 48.758 113.783 52.3113 113.783 52.3113L100.311 53.1009C100.311 53.1009 96.5035 50.7321 91.5246 65.3397C86.5456 79.9474 84.7884 80.737 84.7884 80.737C84.7884 80.737 75.7091 91.7915 81.5667 94.5551C87.4243 97.3187 90.6459 83.8954 90.6459 83.8954L93.8676 75.6046C93.8676 75.6046 101.19 66.1293 101.775 64.1553C102.361 62.1813 105.876 62.1813 105.876 62.1813L120.52 62.9709L120.429 68.7429L124.913 74.0254L129.013 69.2877L132.235 60.6021V51.1269Z" fill="#F8BDC5"/>
<path opacity="0.1" d="M147.757 47.1788C147.213 48.8094 146.797 50.2425 146.483 51.5217C146.325 51.5217 146.161 51.5217 146 51.5217C144.651 51.5236 143.32 51.1056 142.11 50.3003C140.901 49.4949 139.845 48.324 139.027 46.8788C140.435 43.2979 140.142 39.2828 140.142 39.2828C140.142 39.2828 151.858 34.94 147.757 47.1788Z" fill="black"/>
<path d="M146 51.1269C150.853 51.1269 154.786 45.8241 154.786 39.2828C154.786 32.7415 150.853 27.4387 146 27.4387C141.147 27.4387 137.214 32.7415 137.214 39.2828C137.214 45.8241 141.147 51.1269 146 51.1269Z" fill="#F8BDC5"/>
<path opacity="0.1" d="M138.265 90.5399C138.246 90.715 138.185 90.877 138.092 91.0019C137.94 91.2403 137.813 91.506 137.714 91.7915C132.504 91.4835 121.102 85.0364 118.859 83.7454C119.152 82.636 119.348 81.9372 119.348 81.9372L134.578 83.9112C134.578 83.9112 138.526 88.5541 138.265 90.5399Z" fill="black"/>
<path opacity="0.1" d="M149.131 74.0254L147.757 76.3942C144.852 81.4279 138.813 83.1058 138.813 83.1058L134.982 75.1624L134.174 65.5134L134.431 56.0619C135.248 61.1943 137.533 71.9013 141.021 72.841C146.852 74.4202 146.433 63.1565 146.146 58.4307C146.103 57.7009 146.152 56.9665 146.293 56.2593L147.464 57.4437L147.57 57.6608C150.361 63.5039 149.734 70.4603 149.131 74.0254Z" fill="black"/>
<path d="M133.699 50.3372H130.77C130.77 50.3372 133.699 75.6046 119.934 68.4981C119.934 68.4981 121.105 74.4202 118.469 82.711C118.469 82.711 132.528 91.0019 138.092 91.0019L139.85 88.633C139.85 88.633 144.828 85.8694 145.414 79.9474L148.05 76.3942C148.05 76.3942 150.979 65.7345 146.879 57.4437L145.707 56.2593C145.566 56.9664 145.517 57.7009 145.561 58.4307C145.854 63.1683 146.267 74.4123 140.435 72.841C133.113 70.867 133.699 50.3372 133.699 50.3372Z" fill="#EB6576"/>
<path d="M113.783 122.191L118.469 126.929C118.469 126.929 126.084 130.087 132.235 118.638C132.235 118.638 128.427 117.454 129.013 114.69C129.599 111.926 113.783 122.191 113.783 122.191Z" fill="#5E52AD"/>
<path opacity="0.05" d="M113.783 122.191L118.469 126.929C118.469 126.929 126.084 130.087 132.235 118.638C132.235 118.638 128.427 117.454 129.013 114.69C129.599 111.926 113.783 122.191 113.783 122.191Z" fill="black"/>
<path opacity="0.1" d="M138.265 90.9347C138.246 91.1098 138.185 91.2718 138.092 91.3967C136.921 92.9759 133.699 107.978 133.699 107.978L119.348 100.872L119.14 100.801C120.252 99.8536 121.429 99.0525 122.655 98.4083C123.653 97.8872 124.658 97.3345 125.528 96.8055C126.233 96.399 126.91 95.9102 127.552 95.3447C128.779 94.1603 133.491 92.2652 138.265 90.9347Z" fill="black"/>
<path d="M171.48 147.064L167.087 148.643C167.087 148.643 166.988 148.248 166.794 147.561C165.857 144.347 162.735 134.687 157.422 128.508C150.979 121.007 147.464 110.347 148.05 107.584C148.636 104.82 135.163 115.874 135.163 115.874C135.163 115.874 125.396 124.067 118.941 124.078C117.976 124.115 117.017 123.876 116.126 123.376C113.637 121.864 112.629 119.214 112.293 116.664C112.093 115.05 112.147 113.397 112.449 111.812C112.752 110.227 113.297 108.745 114.05 107.461C116.282 103.572 119.259 100.578 122.66 98.8031C123.659 98.282 124.664 97.7293 125.534 97.2002C126.239 96.7937 126.916 96.305 127.557 95.7395C129.608 93.7655 141.323 89.8174 146.887 89.8174H151.573C151.573 89.8174 155.568 90.1333 156.822 97.5793C157.274 100.169 157.973 102.669 158.901 105.017L166.502 124.56C166.502 124.56 170.403 133.881 173.926 137.829C174.931 138.958 175.906 139.649 176.752 139.562C180.56 139.168 171.48 147.064 171.48 147.064Z" fill="#F8BDC5"/>
<path opacity="0.1" d="M157.762 33.3687C158.052 32.6617 158.186 31.8569 158.146 31.0505C158.107 30.2441 157.896 29.47 157.539 28.8205C156.555 27.0953 154.778 26.7005 153.375 25.6187C152.101 24.6356 151.137 23.0683 149.954 21.8997C147.716 19.6848 144.864 19.0137 142.125 18.4096C140.954 18.1491 139.759 17.8885 138.581 18.1056C137.091 18.378 135.72 19.4006 134.551 20.6758C134.137 21.0848 133.79 21.6067 133.535 22.2076C133.102 23.3604 133.292 24.7422 133.216 26.0293C133.028 29.168 131.23 31.7223 129.247 33.3845C128.029 34.407 126.688 35.2203 125.674 36.5902C124.661 37.9602 124.049 40.1237 124.687 41.853C125.027 42.7689 125.692 43.5348 125.695 44.5613C125.675 45.0164 125.581 45.46 125.419 45.8602C124.726 47.8488 123.78 49.6591 122.625 51.2098C121.589 52.5995 120.35 53.847 119.811 55.6829C119.292 57.4476 119.518 59.4611 119.995 61.2496C120.218 62.1024 120.496 62.9551 120.508 63.8553C120.54 66.0464 119.043 67.7283 117.535 68.5495C116.583 69.0667 115.485 69.4615 114.914 70.6024C114.343 71.7434 114.472 73.4016 115.054 74.5505C115.637 75.6993 116.577 76.4692 117.544 76.9943C119.338 78.013 121.327 78.2316 123.22 77.6181C124.159 77.3019 125.039 76.7249 125.803 75.924C126.567 75.1232 127.198 74.1161 127.657 72.9673C128.536 70.6617 128.594 67.8349 129.813 65.8214C131.959 62.3037 136.487 63.192 138.728 59.777C140.526 57.0331 140.037 52.8758 139.899 49.22C139.82 47.1833 139.883 45.1411 140.087 43.1203C140.233 41.6832 140.503 40.1395 141.34 39.2315C142.017 38.4971 142.931 38.3313 143.792 38.1892C145.59 37.8852 147.661 37.2969 148.478 35.1137C148.817 34.2056 148.92 33.0607 149.532 32.4685C150.379 31.6473 151.565 32.4685 152.303 33.4555C153.117 34.5491 153.799 35.8954 155.038 35.623C156.09 35.4019 157.214 34.6557 157.762 33.3687Z" fill="black"/>
<path d="M157.446 32.9423C157.736 32.2349 157.869 31.43 157.829 30.6235C157.789 29.8171 157.577 29.0432 157.22 28.3942C156.236 26.6689 154.458 26.2741 153.055 25.1923C151.781 24.2093 150.818 22.6419 149.635 21.4733C147.397 19.2584 144.544 18.5873 141.806 17.9832C140.634 17.7227 139.44 17.4621 138.262 17.6792C136.771 17.9516 135.401 18.9742 134.232 20.2494C133.818 20.6584 133.471 21.1803 133.216 21.7812C132.782 22.934 132.973 24.3159 132.897 25.6029C132.709 28.7416 130.911 31.2959 128.928 32.9581C127.71 33.9806 126.368 34.7939 125.355 36.1639C124.342 37.5338 123.73 39.6973 124.368 41.4266C124.708 42.3425 125.373 43.1084 125.375 44.1349C125.356 44.59 125.262 45.0337 125.1 45.4338C124.407 47.4224 123.461 49.2327 122.306 50.7834C121.269 52.1731 120.03 53.4207 119.492 55.2565C118.973 57.0213 119.199 59.0347 119.676 60.8232C119.899 61.676 120.177 62.5287 120.189 63.4289C120.221 65.62 118.724 67.3019 117.216 68.1231C116.264 68.6403 115.166 69.0351 114.595 70.176C114.024 71.317 114.152 72.9752 114.735 74.1241C115.318 75.2729 116.258 76.0428 117.225 76.5679C119.019 77.5866 121.008 77.8052 122.901 77.1917C123.84 76.8755 124.719 76.2985 125.483 75.4976C126.247 74.6968 126.879 73.6897 127.338 72.5409C128.216 70.2353 128.275 67.4085 129.493 65.395C131.64 61.8773 136.168 62.7656 138.409 59.3506C140.207 56.6067 139.718 52.4494 139.58 48.7936C139.501 46.7569 139.563 44.7147 139.768 42.6939C139.914 41.2568 140.183 39.7131 141.021 38.8051C141.698 38.0708 142.611 37.9049 143.472 37.7628C145.271 37.4588 147.341 36.8706 148.159 34.6873C148.498 33.7793 148.601 32.6343 149.213 32.0421C150.059 31.2209 151.245 32.0421 151.984 33.0291C152.798 34.1227 153.48 35.469 154.719 35.1966C155.77 34.9716 156.898 34.2254 157.446 32.9423Z" fill="#6E464E"/>
<path opacity="0.1" d="M127.109 79.75C127.109 79.75 130.331 83.3032 134.431 82.9084L127.109 79.75Z" fill="black"/>
<path opacity="0.05" d="M177.461 139.634C175.78 141.86 172.066 145.09 172.066 145.09L167.673 146.669C167.673 146.669 164.451 134.035 158.008 126.534C151.565 119.033 148.05 108.373 148.636 105.61C149.222 102.846 135.749 113.9 135.749 113.9C135.749 113.9 125.982 122.093 119.527 122.104C118.562 122.141 117.603 121.902 116.712 121.402C114.223 119.89 113.215 117.24 112.878 114.69C112.651 112.937 112.733 111.137 113.119 109.435C112.268 111.66 111.978 114.197 112.293 116.664C112.629 119.214 113.637 121.864 116.126 123.376C117.017 123.876 117.976 124.115 118.941 124.078C125.384 124.078 135.163 115.874 135.163 115.874C135.163 115.874 148.636 104.82 148.05 107.584C147.464 110.347 150.979 121.007 157.422 128.508C163.866 136.009 167.087 148.643 167.087 148.643L171.48 147.064C171.48 147.064 179.063 140.467 177.461 139.634Z" fill="black"/>
<path opacity="0.1" d="M125.791 97.3187L125.293 97.6306C121.659 99.8805 118.682 103.694 116.829 108.472C112.905 118.768 118.092 123.407 118.941 124.078C117.976 124.115 117.017 123.876 116.126 123.376C113.637 121.864 112.629 119.214 112.293 116.664C112.093 115.05 112.147 113.397 112.449 111.812C112.752 110.227 113.297 108.745 114.05 107.461C116.282 103.572 119.259 100.578 122.66 98.8032C123.659 98.282 124.664 97.7293 125.534 97.2003L125.791 97.3187Z" fill="black"/>
<path d="M125.206 97.3187C125.206 97.3187 119.055 94.3735 114.955 95.8461C114.955 95.8461 112.319 98.8979 110.269 101.662C108.599 103.912 104.411 126.929 118.469 124.165C118.469 124.165 111.979 119.657 116.244 108.472C118.096 103.694 121.073 99.8803 124.708 97.6306L125.206 97.3187Z" fill="#5E52AD"/>
<path opacity="0.1" d="M171.48 147.064L167.087 148.643C167.087 148.643 166.988 148.248 166.794 147.561C167.817 147.198 169.137 146.377 169.137 144.695C169.137 144.695 172.491 140.474 173.926 137.829C174.931 138.958 175.906 139.649 176.752 139.563C180.56 139.168 171.48 147.064 171.48 147.064Z" fill="black"/>
<path d="M169.43 145.09C169.43 145.09 173.823 139.563 174.702 137.194C174.702 137.194 183.196 143.905 191.396 137.983C191.396 137.983 199.011 137.194 192.568 146.274C186.124 155.355 168.845 158.908 168.845 158.908C168.845 158.908 164.158 158.908 165.916 148.248C165.916 148.248 169.43 147.853 169.43 145.09Z" fill="#FFD97B"/>
<path d="M195.573 283.223V277.842L277.371 246.917L292 244.675V249.606L210.536 289.046L195.573 283.223Z" fill="#DFE5EE"/>
<path opacity="0.05" d="M195.573 283.223V277.842L277.371 246.917L292 244.675V249.606L210.536 289.046L195.573 283.223Z" fill="black"/>
<path d="M195.573 277.842L277.371 241.536L291.669 244.675L210.536 283.669L195.573 277.842Z" fill="#DFE5EE"/>
<path d="M213.529 195.818H208.207V279.188H213.529V195.818Z" fill="#DFE5EE"/>
<path d="M277.371 176.544H272.049V249.606H277.371V176.544Z" fill="#DFE5EE"/>
<path d="M290.67 153.685V176.097L224.248 196.098L216.39 198.467L196.902 204.334L191.25 202.091V176.097L221.387 168.351L228.891 166.425L283.688 152.342L290.67 153.685Z" fill="#DFE5EE"/>
<path opacity="0.05" d="M290.67 153.685V176.097L224.248 196.098L216.39 198.467L196.902 204.334L191.25 202.091V176.097L221.387 168.351L228.891 166.425L283.688 152.342L290.67 153.685Z" fill="black"/>
<path opacity="0.05" d="M213.529 195.818V200.224L208.207 201.827V195.818H213.529Z" fill="black"/>
<path opacity="0.05" d="M277.371 176.544V181.001L272.049 182.6V176.544H277.371Z" fill="black"/>
<path d="M290.67 153.685V176.097L263.702 184.219L255.859 186.579L224.248 196.098L216.39 198.467L196.902 204.334L197.236 178.786L224.319 171.51L231.895 169.477H231.898L262.859 161.158L270.421 159.125L290.67 153.685Z" fill="#DFE5EE"/>
<path d="M231.898 169.477L224.248 196.098L216.39 198.467L224.319 171.51L221.387 168.351L228.891 166.425L231.895 169.477H231.898Z" fill="#16BCFC"/>
<path d="M270.801 159.512L263.702 184.219L255.859 186.579L263.222 161.545L262.859 161.158L260.293 158.387L267.794 156.46L270.421 159.125L270.799 159.512H270.801Z" fill="#16BCFC"/>
<path opacity="0.05" d="M209.373 277.731L214.692 276.049V277.731L209.373 279.413V277.731Z" fill="black"/>
<path opacity="0.05" d="M272.881 248.149L278.2 246.467V248.149L272.881 249.827V248.149Z" fill="black"/>
</g>
<defs>
<linearGradient id="paint0_linear_11_513" x1="137.378" y1="161.079" x2="137.378" y2="6.73927" gradientUnits="userSpaceOnUse">
<stop stop-color="#808080" stop-opacity="0.25"/>
<stop offset="0.54" stop-color="#808080" stop-opacity="0.12"/>
<stop offset="1" stop-color="#808080" stop-opacity="0.1"/>
</linearGradient>
<clipPath id="clip0_11_513">
<rect width="292" height="319" fill="white"/>
</clipPath>
</defs>
</svg>
